<?xml version="1.0" encoding="utf-8"?>
<!-- Generator: Adobe Illustrator 16.0.0, SVG Export Plug-In . SVG Version: 6.00 Build 0)  -->
<!DOCTYPE svg PUBLIC "-//W3C//DTD SVG 1.1//EN" "http://www.w3.org/Graphics/SVG/1.1/DTD/svg11.dtd">
<svg version="1.1" id="Layer_1" xmlns="http://www.w3.org/2000/svg" xmlns:xlink="http://www.w3.org/1999/xlink" x="0px" y="0px"
	 width="701.438px" height="135.672px" viewBox="0 0 701.438 135.672" enable-background="new 0 0 701.438 135.672"
	 xml:space="preserve">
<g>
	<path fill="#010101" d="M71.531,85.47L71.531,85.47L27.7,85.526l-4.888,17.223H0L30.582,0H35L71.531,85.47L71.531,85.47z
		 M33.089,66.554l25.192-0.025L43.492,30.066L33.089,66.554z"/>
	<path fill="#010101" d="M113.804,41.96c4.763-6.6,11.593-9.9,20.491-9.9c8.899,0,16.439,3.365,22.624,10.09
		c6.184,6.727,9.275,15.313,9.275,25.756c0,10.447-3.092,19.01-9.275,25.695c-6.185,6.686-13.662,10.024-22.436,10.024
		s-15.667-3.676-20.68-11.028v10.151H92.371V0h21.434L113.804,41.96L113.804,41.96z M139.748,80.627
		c3.09-2.965,4.639-7.207,4.639-12.723c0-5.514-1.548-9.775-4.639-12.783c-3.092-3.009-6.643-4.513-10.652-4.513
		c-4.011,0-7.563,1.484-10.654,4.45c-3.092,2.967-4.637,7.207-4.637,12.721c0,5.516,1.545,9.777,4.637,12.785
		c3.09,3.008,6.643,4.512,10.654,4.512C133.106,85.076,136.655,83.595,139.748,80.627z"/>
	<path fill="#010101" d="M219.331,32.812h21.434v69.938h-21.434V92.472c-4.43,7.354-11.49,11.028-21.182,11.028
		c-8.022,0-14.521-2.672-19.49-8.021c-4.972-5.346-7.458-12.615-7.458-21.81V32.812h21.308v37.977c0,4.513,1.19,8.002,3.572,10.467
		c2.382,2.466,5.66,3.697,9.839,3.697c4.178,0,7.458-1.231,9.839-3.697c2.383-2.465,3.572-5.954,3.572-10.467V32.812L219.331,32.812
		z"/>
	<path fill="#010101" d="M268.97,32.812v10.277c4.428-7.352,11.487-11.029,21.182-11.029c8.021,0,14.518,2.675,19.489,8.021
		c4.972,5.35,7.459,12.618,7.459,21.81v40.858h-21.309V64.772c0-4.512-1.189-8-3.571-10.466c-2.382-2.463-5.662-3.697-9.84-3.697
		c-4.179,0-7.458,1.234-9.839,3.697c-2.381,2.466-3.571,5.954-3.571,10.466v37.977h-21.434V32.812H268.97z"/>
	<path fill="#010101" d="M331.381,93.601c-6.185-6.687-9.274-15.248-9.274-25.695c0-10.443,3.091-19.029,9.274-25.756
		c6.184-6.725,13.726-10.09,22.623-10.09c8.899,0,15.73,3.302,20.493,9.9V0h21.434v102.749h-21.434V92.597
		c-5.183,7.354-12.117,11.028-20.807,11.028C345,103.625,337.564,100.286,331.381,93.601z M369.86,80.565
		c3.09-3.008,4.638-7.271,4.638-12.785c0-5.514-1.548-9.754-4.638-12.721c-3.093-2.966-6.644-4.45-10.653-4.45
		s-7.563,1.504-10.653,4.513c-3.093,3.008-4.639,7.271-4.639,12.783c0,5.516,1.546,9.758,4.639,12.723
		c3.091,2.968,6.644,4.449,10.653,4.449S366.768,83.573,369.86,80.565z"/>
	<path fill="#010101" d="M410.839,93.601c-6.185-6.687-9.273-15.248-9.273-25.695c0-10.443,3.09-19.029,9.273-25.756
		c6.184-6.725,13.726-10.09,22.624-10.09s15.729,3.302,20.492,9.9v-9.148h21.434v69.938h-21.434V92.597
		c-5.182,7.354-12.115,11.028-20.806,11.028S417.022,100.286,410.839,93.601z M449.318,80.565c3.091-3.008,4.638-7.271,4.638-12.785
		c0-5.514-1.547-9.754-4.638-12.721c-3.092-2.966-6.643-4.45-10.653-4.45c-4.01,0-7.563,1.504-10.653,4.513
		c-3.092,3.008-4.638,7.271-4.638,12.783c0,5.516,1.546,9.758,4.638,12.723c3.091,2.968,6.644,4.449,10.653,4.449
		C442.676,85.077,446.227,83.573,449.318,80.565z"/>
	<path fill="#010101" d="M503.595,32.812v10.277c4.428-7.352,11.486-11.029,21.182-11.029c8.021,0,14.519,2.675,19.49,8.021
		c4.97,5.35,7.457,12.618,7.457,21.81v40.858h-21.308V64.772c0-4.512-1.19-8-3.571-10.466c-2.382-2.463-5.662-3.697-9.839-3.697
		c-4.181,0-7.458,1.234-9.84,3.697c-2.382,2.466-3.571,5.954-3.571,10.466v37.977h-21.434V32.812H503.595z"/>
</g>
<path fill="#D8A82B" d="M63.985,102.748L35.012,0l0,0l0,0l0,0l0,0h21.453l30.457,102.749L63.985,102.748L63.985,102.748z"/>
<g>
	<path d="M567.066,93.645c-6.444-6.484-9.665-15.131-9.665-25.939c0-10.807,3.221-19.434,9.665-25.877
		c6.442-6.442,14.778-9.665,25.004-9.665c8.48,0,15.671,2.101,21.575,6.298c5.902,4.199,9.81,10.207,11.723,18.021h-23.071
		c-1.995-4.157-5.26-6.236-9.79-6.236c-4.532,0-7.899,1.602-10.102,4.801c-2.203,3.201-3.305,7.42-3.305,12.658
		c0,5.237,1.102,9.458,3.305,12.658c2.202,3.201,5.425,4.801,9.665,4.801c2.66,0,4.739-0.456,6.235-1.371
		c1.497-0.914,2.826-2.535,3.991-4.864h23.071c-1.913,7.482-5.861,13.428-11.848,17.834c-5.986,4.407-13.138,6.609-21.45,6.609
		C581.845,103.372,573.509,100.13,567.066,93.645z"/>
	<path d="M649.558,101.127l-27.062-68.216h24.193l15.464,45.519l16.961-45.519h22.323l-44.396,102.761h-22.323L649.558,101.127z"/>
</g>
</svg>
